<?xml version="1.0" encoding="utf-8"?>
<!-- Generator: Adobe Illustrator 16.0.0, SVG Export Plug-In . SVG Version: 6.00 Build 0)  -->
<!DOCTYPE svg PUBLIC "-//W3C//DTD SVG 1.1 Tiny//EN" "http://www.w3.org/Graphics/SVG/1.1/DTD/svg11-tiny.dtd">
<svg version="1.1" baseProfile="tiny" xmlns="http://www.w3.org/2000/svg" xmlns:xlink="http://www.w3.org/1999/xlink" x="0px"
	 y="0px" width="72px" height="63.681px" viewBox="0 0 72 63.681" xml:space="preserve">
<g id="Swipe">
	<g>
		<path fill="#ED2C92" d="M63.488,56.523c0.084-0.028,0.155-0.065,0.196-0.121c-0.858-0.586-1.805,0.286-2.687-0.069
			c-0.357-0.146-0.654-0.32-1.019-0.001c0.062,0.018,0.116,0.067,0.188,0.079c0.057,0.428,0.651,0.416,0.956,0.481
			c0.414,0.088,0.716,0.289,1.146,0.102c0.235-0.101,0.5-0.233,0.694-0.327C63.092,56.605,63.315,56.583,63.488,56.523z"/>
		<path fill="#ED2C92" d="M62.93,53.791c-0.212,0.01-0.421,0.027-0.582,0.022c-0.178-0.004-0.357,0.002-0.536,0.002
			c-0.24,0-0.507-0.04-0.711,0.101c0.197,0.004,0.395,0.13,0.577,0.201c0.317,0.124,0.698,0.164,0.991,0.296
			c0.205,0.093,0.304,0.285,0.483,0.395c0.268,0.162,0.699,0.174,1.007,0.247c0.267,0.064,0.55,0.086,0.821,0.129
			c0.771,0.119,1.533,0.276,2.278,0.51c1.734,0.567,7.242,1.048,2.831,0.295c-1.191-0.204-2.385-0.569-3.521-0.979
			c-0.418-0.152-0.834-0.375-1.262-0.497c-0.313-0.089-0.593-0.118-0.892-0.27c-0.257-0.129-0.496-0.299-0.767-0.396
			C63.46,53.779,63.191,53.779,62.93,53.791z"/>
		<path fill="#ED2C92" d="M63.41,55.344c-0.247-0.074-0.442-0.189-0.688-0.277c-0.212-0.075-0.387-0.059-0.603-0.107
			c-0.401-0.091-0.737-0.28-1.079-0.498c-0.362-0.23-0.731-0.204-1.099-0.384c-0.322-0.159-0.61-0.396-0.95-0.531
			c-0.67-0.271-1.488-0.307-2.07-0.778c0.104-0.169,0.376-0.105,0.559-0.094c0.217,0.386,1.307,0.575,1.707,0.65
			c0.318,0.06,0.63,0.128,0.957,0.13c1.009,0.008,2.039-0.146,3.043-0.031c0.258,0.028,0.515,0.104,0.772,0.146
			c0.604,0.104,1.231,0.279,1.814,0.449c0.334,0.097,0.741,0.281,1.058,0.259c-0.988-0.567-2.078-0.774-3.162-1.177
			c-0.951-0.352-1.951-0.551-2.904-0.898c-0.905-0.33-1.861-0.448-2.799-0.685c-1.383-0.35-2.762-0.717-4.138-1.103
			c-1.76-0.49-3.512-1.084-5.288-1.543c-5.654-1.456-11.401-2.65-17.257-2.903c-2.932-0.127-5.886-0.017-8.847,0.409
			c-1.354,0.195-2.706,0.566-4.056,0.958c-1.201,0.353-2.379,0.612-3.523,1.531c-0.468,0.376-0.78,0.874-1.146,1.394
			c-0.308,0.438-0.726,0.394-0.955,1.046c-0.251,0.718-0.172,1.904-0.117,2.678c0.047,0.76,0.024,2.532,0.264,3.222
			c0.18,0.532,0.437,0.514,0.694,0.841c0.5,0.632,0.715,1.051,1.038,2.049c0.421,1.309,0.8,2.901,1.7,3.408
			c0.778,0.437,1.651-0.078,2.458-0.036c0.92,0.044,1.429-0.04,2.176-0.723c1.809-1.626,3.87-1.479,5.877-2.078
			c3.178-0.945,6.479-1.499,9.774-1.813c1.647-0.157,3.299-0.252,4.951-0.296c0.628-0.017,1.22,0.137,1.837,0.112
			c0.742-0.03,1.347,0.014,2.067,0.21c0.897,0.244,2.199,0.565,2.333,0.453c0.134-0.11-0.427-0.181-0.299-0.419
			c0.099-0.188,0.484-0.208,0.662-0.231c0.743-0.101,1.549-0.126,2.3-0.151c2.075-0.073,4.527,0.126,6.462,0.446
			c-0.632,0.813-5.249-0.961-5.636,0.361c2.31-0.137,4.778,0.01,6.931,0.262c0.855,0.103,1.547,0.154,2.434,0.015
			c0.686-0.11,1.009-0.284,1.105-0.479c0.222-0.454-0.816-1.091-1.497-1.418c-0.723-0.344-0.08-1.033-0.774-1.323
			c-0.487-0.213-1.192,0.062-1.625-0.263c-0.02-0.017,1.684-0.151,1.859-0.146c0.643,0.01,1.243-0.109,1.88-0.124
			c0.585-0.013,1.016,0.13,1.577,0.225c0.747,0.13,1.854,0.228,2.636,0.03c-0.316-0.131-0.722-0.259-1.053-0.423
			C64.361,55.488,63.873,55.485,63.41,55.344z M58.34,52.267c0.402,0.112,0.638,0.181,1.044,0.2
			c0.289,0.015,0.596,0.113,0.876,0.183c0.34,0.084,0.9,0.156,1.152,0.412c-0.102,0.042-0.212,0.036-0.327,0.028
			c-0.532-0.032-1.247,0.234-1.718-0.072c-0.18-0.116-0.253-0.265-0.475-0.354c-0.626-0.254-1.312-0.222-1.955-0.562
			C57.444,52.125,57.849,52.13,58.34,52.267z"/>
	</g>
	<path fill="#ED2C92" d="M21.895,62.908c0.05-0.055,1.458-0.446,1.72-0.54c0.447-0.158,0.619-0.26,1.08-0.328
		c1.217-0.185,2.357-0.663,3.586-0.83c1.521-0.206,3.015-0.577,4.535-0.789c0.653-0.091,1.32-0.029,1.985-0.091
		c0.962-0.092,1.881-0.451,2.831-0.588c1.115-0.159,2.275,0.063,3.381-0.148c0.533-0.103,0.945-0.489,1.478-0.551
		c-0.539-0.433-1.899-0.126-2.563-0.126c-0.847,0-1.759-0.003-2.569,0.237c-1.415,0.419-3.082,0.793-4.574,0.817
		c-0.965,0.016-1.879,0.316-2.833,0.403c-0.269,0.025-0.548-0.003-0.805,0.063c-0.763,0.191-1.511,0.582-2.277,0.818
		c-0.849,0.261-1.799,0.36-2.642,0.555c-0.457,0.104-0.824,0.461-1.32,0.455C22.541,62.262,21.873,62.507,21.895,62.908z"/>
</g>
<g id="events">
	<g>
		<g>
			<polygon fill="#FFFFFF" points="16.963,54.964 17.788,54.919 17.742,53.599 16.959,53.641 16.959,52.605 18.767,52.587 
				18.757,51.267 15.896,51.294 15.909,56.723 18.809,56.835 18.839,55.514 16.964,55.441 			"/>
			<polygon fill="#FFFFFF" points="23.882,56.718 22.627,51.777 23.634,51.379 24.35,54.185 25.083,51.398 26.089,51.812 
				24.794,56.728 			"/>
			<polygon fill="#FFFFFF" points="30.824,54.797 31.589,54.778 31.569,53.458 30.831,53.478 30.837,52.684 32.821,52.679 
				32.817,51.357 29.785,51.364 29.751,56.746 32.914,56.76 32.917,55.44 30.817,55.432 			"/>
			<path fill="#FFFFFF" d="M37.654,51.41l1.422,2.698l0.015-2.701l1.061,0.012l-0.032,5.276l-0.935,0.023l-1.612-3.063
				c0,1.407,0.001,2.977,0,3.035l-1.061-0.004c0.002-0.104,0.001-5.238,0.001-5.238L37.654,51.41z"/>
			<polygon fill="#FFFFFF" points="43.999,52.652 44.808,52.656 44.785,56.792 45.845,56.803 45.868,52.66 46.63,52.663 
				46.632,51.341 44.003,51.33 			"/>
			<path fill="#FFFFFF" d="M54.025,55.384c-0.001-0.024-0.004-0.05-0.007-0.074c-0.032-0.408-0.117-0.855-0.724-1.461
				c-0.272-0.271-0.637-0.458-0.985-0.637c-0.197-0.101-0.515-0.264-0.638-0.378c0.018-0.269,0.091-0.5,0.716-0.485
				c0.413,0.009,0.494,0.432,0.507,0.684l1.057-0.048c-0.021-0.772-0.448-1.935-1.546-1.957c-0.018-0.001-0.032,0-0.048,0
				c-1.473-0.008-1.728,1.162-1.748,1.863c-0.022,0.868,0.681,1.227,1.3,1.543c0.28,0.145,0.57,0.292,0.728,0.446
				c0.31,0.309,0.317,0.416,0.33,0.564c0.004,0.048,0.008,0.096,0.013,0.138c0.002,0.016-0.005,0.031-0.018,0.046
				c-0.019,0.027-0.132,0.153-0.534,0.165c-0.801,0.024-0.811-0.348-0.818-0.548l-1.056,0.039c0.011,0.434,0.174,1.825,1.804,1.831
				c0.03-0.001,0.063,0,0.094-0.001c0.607-0.017,1.055-0.232,1.328-0.642C54.071,56.037,54.051,55.565,54.025,55.384z"/>
		</g>
	</g>
</g>
<g id="shadow">
	<path fill="#005EA1" d="M19.951,49.675c0.107,0.001,0.223,0,0.345-0.009c0.543-0.037,1.093-0.054,1.5-0.067
		c0.193-0.007,0.359-0.012,0.484-0.019c0.328-0.018,0.623-0.102,0.871-0.246c0.278,0.077,0.554,0.107,0.811,0.109
		c0.059,0,0.118,0,0.178,0c0.266,0.002,0.531,0.004,0.797,0.006c0.118,0,0.229,0,0.336-0.004c0.265,0.001,0.532,0.002,0.798,0.002
		c0.425-0.001,0.767-0.012,1.147-0.069c0.028-0.004,0.057-0.009,0.084-0.013c0.801-0.104,1.235-0.453,1.46-0.896
		c0.6,0.392,1.167,0.455,1.524,0.451c0.198-0.003,0.392-0.031,0.584-0.08c0.229,0.047,0.431,0.059,0.591,0.057
		c0.573-0.013,1.126-0.214,1.653-0.612c0.957-0.724,1.542-1.175,1.544-1.175c0.043-0.036,0.085-0.073,0.127-0.109
		c0.212-0.206,0.458-0.563,0.6-1.033c0.021,1.58,0.369,3.305,2.968,3.449c1.233,0.071,1.562,0.073,1.864,0.061
		c0.101-0.004,1.542-0.084,1.542-0.084c1.946-0.11,2.15-1.796,2.212-2.382c0.02-0.188,0.038-0.465,0.056-0.837
		c0.573,1.017,1.38,1.806,2.196,2.292c1.646,0.979,4.41,1.479,6.595,1.274c0.205-0.02,1.126-0.122,1.126-0.122
		c0.302-0.033,0.593-0.081,0.867-0.143c1.942-0.438,3.573-2.049,4.517-4.479c-0.076,0.518-0.141,0.937-0.18,1.177
		c-0.104,0.727-0.406,2.838,1.69,2.732c0.377-0.019,0.849-0.05,1.314-0.084c0.249-0.02,0.496-0.039,0.741-0.058
		c0,0,0.646-0.041,1.248-0.225c0.6-0.182,1.648-0.6,1.857-2.526c0.002-0.011,0.003-0.024,0.004-0.037
		c0.022-0.198,0.125-0.896,0.241-1.797c0.155-1.201,0.378-2.992,0.566-5.227c2.031-3.077,3.05-10.222,3.121-15.854
		c0.001-0.06,0.002-0.12,0.002-0.179c0.043-2.391-0.86-3.149-1.405-3.402c-0.504-0.234-1.864-0.44-2.145-0.479
		c-0.141-0.02-0.268-0.029-0.383-0.026c-0.152,0.003-0.291,0.027-0.42,0.068c-0.062-0.009-0.112-0.016-0.146-0.021
		c-0.052-0.006-0.099-0.011-0.147-0.015c0.011-1.196-0.31-2.625-0.528-3.454c0.155-0.103,0.303-0.218,0.444-0.348
		c1.222-1.132,1.539-2.926,0.946-5.31c-0.513-2.147-1.204-4.178-1.492-4.921c-0.107-0.386-0.297-0.813-0.531-1.341
		c-0.499-1.122-0.916-1.822-1.617-2.198c-0.337-0.191-0.737-0.338-1.192-0.437c-0.579-0.126-2.346-0.414-3.506,0.445
		c-0.156-0.125-0.313-0.216-0.465-0.283c-0.313-0.16-0.676-0.286-1.083-0.375c-0.575-0.125-2.38-0.424-3.578,0.414
		c-0.593-0.388-1.305-0.71-2.126-0.89c-0.524-0.114-1.069-0.164-1.615-0.148c-0.921,0.027-1.502-0.034-1.497-0.032l0,0
		c-0.783-0.103-1.564,0.021-2.22,0.337c-0.046-0.031-0.091-0.063-0.139-0.092c-0.236-0.144-0.5-0.246-0.804-0.312
		c-0.365-0.08-1.336-0.141-2.094-0.073l0,0c-1.637,0.02-3.262,0.056-4.827,0.106v0.009c-0.739-0.024-2.104,0.042-2.864,0.768
		c-0.249,0.227-0.451,0.498-0.602,0.807c-0.548-0.204-1.116-0.372-1.699-0.499c-2.469-0.539-4.956-0.304-7.186,0.674
		c-0.206,0.089-0.384,0.203-0.54,0.332c-0.632-0.655-1.425-1.043-2.376-1.346l-0.136-0.043c-0.159-0.044-0.323-0.087-0.494-0.124
		c-2.225-0.485-4.27-0.006-5.615,1.318c-0.037,0.037-0.074,0.075-0.11,0.113c-0.083-0.051-0.172-0.097-0.271-0.139
		c-0.254-0.141-0.538-0.246-0.851-0.314c-1.266-0.276-3.21,0.042-4.284,1.021c-0.239,0.203-0.477,0.493-0.644,0.909
		C9.665,3.697,9.631,3.828,9.597,4.003C9.462,3.954,9.321,3.912,9.174,3.88C7.907,3.604,5.968,4.044,4.97,5.13
		C4.353,5.746,4.241,6.547,4.081,9.16c-0.09,1.473-0.129,2.247-0.12,2.711c-0.223,3.719-0.295,7.48-0.215,11.181h0.011
		c-0.008,0.263,0.002,0.56,0.013,0.901c0.002,0.192,0.028,0.378,0.07,0.558c-0.179-0.001-0.341-0.004-0.481-0.007
		c-0.499-0.011-0.76-0.013-0.986,0.062c-0.021,0.007-0.041,0.018-0.063,0.026c-0.411-0.007-0.643-0.004-0.845,0.064
		c-0.836,0.284-1.376,1.606-1.22,2.947c0.028,0.315,0.163,2.483,0.333,4.21c0.147,1.569,0.348,3.172,0.474,4.001
		c0.106,2.052,2.058,10.455,2.563,11.497c0.504,1.043,0.707,1.431,1.269,1.863c0.458,0.353,0.962,0.55,1.421,0.568
		c0.011,0,0.022,0.001,0.034,0.001c0.052,0.001,0.184,0.007,0.361,0.015c0.151,0.005,0.303,0.011,0.453,0.016
		c0.029,0.004,0.06,0.007,0.089,0.009c0.012,0,0.022,0.001,0.035,0.001c0.052,0.001,0.187,0.006,0.365,0.013
		c0.711,0.026,1.449,0.054,1.849,0.05c0.541-0.021,1.302-0.176,1.102-1.443c0.099,0.12,0.208,0.237,0.332,0.347
		c0.517,0.468,1.135,0.74,1.749,0.785c0.722,0.053,1.13,0.07,1.409,0.081c0.123,0.007,0.216,0.011,0.302,0.016
		c0.044,0.003,0.096,0.006,0.152,0.007c0.097,0.004,0.189,0.003,0.277-0.002c0.112,0.006,0.208,0.01,0.292,0.013
		c0.124,0.005,0.219,0.009,0.305,0.015c0.045,0.003,0.097,0.006,0.153,0.007c0.809,0.024,1.307-0.231,1.559-0.632
		c0.485,0.384,1.089,0.598,1.758,0.614C18.877,49.654,19.838,49.674,19.951,49.675z"/>
</g>
<g id="hartsyfartsy">
	<g>
		<path fill="#FFFFFF" d="M5.012,23.509c0.01,0.882,2.239,0.407,2.738-0.283c0.064-0.116-0.084-3.508-0.072-3.499
			c-0.007-0.731-0.007-1.458-0.001-2.178c0.847-0.234,1.718-0.467,2.611-0.698c-0.002,0.382-0.003,0.766-0.001,1.15
			c-0.011-0.009-0.208,3.405,0.054,3.686c0.534,0.59,2.512,0.41,3.054-0.296c0.25-0.477-0.099-8.295-0.042-8.209
			c0.007-0.367,0.017-0.731,0.027-1.093c-0.083-0.204,0.811-9.181,0.599-9.206c-0.482-0.44-2.38-0.184-2.94,0.406
			c-0.489,0.182-0.77,9.365-0.675,9.561c-0.006,0.167-0.011,0.336-0.015,0.504c-0.891,0.24-1.759,0.482-2.604,0.728
			c0.045-1.412,0.11-2.793,0.194-4.137C7.916,9.896,8.486,5.257,8.329,5.13C7.885,4.687,6.152,5.02,5.652,5.646
			c-0.25,0.215-0.466,5.413-0.439,5.468c-0.22,3.619-0.311,7.482-0.224,11.442C4.988,22.556,5.005,23.27,5.012,23.509"/>
		<path fill="#FFFFFF" d="M21.005,1.797c-1.236-0.356-3.06-0.42-4.191,0.694c-1.133,1.121-1.26,2.231-1.259,2.229
			c-0.809,1.99-0.651,9.944-0.591,10.053c-0.042-0.058,0.001,6.989,0.352,7.328c0.604,0.584,2.714,0.329,3.259-0.407
			c0.254-0.387-0.409-4.778-0.393-4.756c0.746-0.3,2.656-1.188,2.659-1.187c0.151,2.658,0.036,0.615,0.037,0.66
			c-0.022-0.037,0.061,5.841,0.411,6.171c0.647,0.6,2.869,0.351,3.432-0.393c0.223-0.48-0.732-10.133-0.674-9.988
			c-0.011-0.391,0.142-2.718-0.31-6.334C23.324,2.463,22.246,2.194,21.005,1.797z M20.555,8.924
			c0.149,1.411,0.029,0.954,0.116,3.248c-0.848,0.334-1.69,0.672-2.524,1.015c-0.058-0.289-0.644-4.902,0.195-6.709
			C18.363,6.52,20.028,3.378,20.555,8.924z"/>
		<path fill="#FFFFFF" d="M32.841,21.07c0.375,0.643,0.562,0.936,1.215,0.528c0.654-0.406,1.263-0.566,1.798-1.021
			c0.536-0.453,0.981-0.489-0.143-2.271c-1.124-1.78-2.375-3.576-2.374-3.574c0.834-0.335,1.355-0.865,1.664-1.302
			c0.842-1.192,0.77-2.524,0.707-3.016c-0.015-0.576-0.103-3.244-0.352-5.209c-0.155-1.227-0.854-1.865-1.408-2.209
			c-0.041,0.006-3.953-2.139-8.358-0.205c-0.214,0.094-0.193,0.744-0.193,0.747c0.04,3.785,0.232,8.318,0.554,13.191
			c-0.011-0.025,0.127,4.762,0.377,4.997c0.667,0.607,2.946,0.373,3.518-0.367c0.185-0.276-0.416-5.087-0.407-5.059
			c-0.032-0.417-0.061-0.833-0.091-1.246c0.282,0.026,0.026,0.087,0.382,0.098C31.067,15.791,32.458,20.403,32.841,21.07z
			 M31.896,11.468c-1.002,0.003-1.749,0.135-2.379,0.097c-0.467-0.028-0.299-0.015-0.414-0.145c-0.168-0.189-0.232-1.313-0.232-1.31
			c-0.047-1.644-0.081-3.212-0.098-4.684c0-0.006,0.425-1.186,1.094-1.16c0.671,0.021,1.714,0.238,2.107,0.883
			C32.37,5.808,32.042,7.683,31.896,11.468z"/>
		<path fill="#FFFFFF" d="M40.168,20.034c0.689,0.622,2.971,0.443,3.519-0.271c0.228-0.54-1.49-12.931-1.518-12.527
			c-0.168-1.169-0.339-2.279-0.513-3.317c0.585,0.006,1.169,0.015,1.75,0.024c0.001,0,1.33-0.076,1.537-0.313
			c0.433-0.516-0.013-2.117-0.654-2.49c-0.317-0.201-1.847-0.091-1.851-0.09c-1.614,0.021-3.259,0.056-4.927,0.109
			c0.002,0-1.323,0.002-1.575,0.243c-0.49,0.447-0.285,2.184,0.357,2.667c0.317,0.225,2.139-0.167,2.134-0.164
			c0.231,1.804,0.468,3.811,0.704,5.964C39.139,9.655,39.889,19.612,40.168,20.034z"/>
		<path fill="#FFFFFF" d="M51.202,16.215c-0.555-0.57-0.838-3.209-0.848-3.221c0.002-0.006,0.018-1.426-0.325-1.694
			c-0.682-0.548-2.773-0.403-3.256,0.24c-0.232,0.294,0.34,3.59,0.337,3.612c0.004,0.031,0.116,0,0.347,1.59
			c0.331,2.37,2.386,3.454,3.533,3.51c0.943-0.041,1.875-0.08,2.797-0.117c1.241-0.055,1.907-0.675,2.247-1.179
			c0.644-0.956,0.543-2.081,0.476-2.5c-0.052-0.581-0.442-3.773-0.87-5.353c-0.509-1.933-2.068-2.479-3.103-2.865
			c-0.647-0.237-1.323-0.483-2.023-0.988c-1.093-0.782-1.225-1.44-1.454-2.72c-0.001-0.005-0.35-0.898,0.429-0.88
			c0.778,0.023,0.801-0.216,1.328,1.141c0.001-0.008,0.132,1.133,0.382,1.329c0.675,0.498,2.624,0.448,2.989-0.062
			c0.408-0.599-0.951-2.929-0.955-2.893c-0.022-0.04-0.047-0.081-0.071-0.12c-0.426-0.708-1.73-1.88-3.737-1.819
			C48.315,1.258,47.6,1.182,47.54,1.175c-0.48-0.063-0.952,0.033-1.281,0.277c-0.685,0.503-0.575,1.481-0.427,2.22
			c0.046,0.229,0.081,0.466,0.117,0.721c0.204,1.405,0.414,3.343,2.894,5.224c1.184,0.899,1.864,1.083,3.084,1.604
			c0.525,0.226,0.856,0.869,1.139,1.621c0.577,1.533,0.875,2.975,0.451,3.397C53.093,16.658,51.761,16.769,51.202,16.215z"/>
		<path fill="#FFFFFF" d="M62.323,10.004c-0.019-0.168-0.055-0.4-0.127-0.71c-0.598-2.454-0.932-3.221-0.939-3.28
			c0.031-0.096-1.667-3.747-1.566-3.822c0.271-0.374,1.939-0.32,2.604,0.084c0.35,0.156,1.214,2.379,1.197,2.418
			c0.071,0.151,0.891,2.365,1.494,4.905c0.265,1.062,0.489,2.63-0.348,3.402c-0.327,0.303-0.735,0.385-1.106,0.345
			c-0.092,0.011-0.221,0.023-0.384,0.039c0.102,0.534,0.201,1.074,0.297,1.619c0.018-0.021,0.76,3.668,0.598,3.904
			c-0.41,0.631-2.294,0.691-2.912,0.076c-0.184-0.217-0.483-3.477-0.498-3.459c-0.104-0.658-0.216-1.306-0.33-1.946
			c-1.266-0.016-2.161-0.576-2.586-1.153c-0.762-1.046-1.08-2.715-1.082-2.708c-0.425-1.749-0.887-3.387-1.385-4.876
			c0.013-0.055-1.058-2.718-0.87-2.883c0.335-0.376,2.089-0.299,2.742,0.111C57.368,1.968,59.063,7.267,59,7.454
			c0.225,0.814,0.438,1.66,0.639,2.533c-0.001-0.004,0.23,1.156,1.681,1.411C62.767,11.642,62.324,9.995,62.323,10.004z"/>
	</g>
	<g>
		<path fill="#FFFFFF" d="M6.281,41.209c-0.08,0.132,1.659,6.219,1.927,6.556c0.18,0.516,0.375,0.996-0.184,1.002
			c-0.562,0.009-1.985-0.056-2.188-0.059c-0.205-0.008-0.704-0.136-1.053-1.152c-0.509-0.762-2.462-8.976-2.585-11.06
			c-0.348-1.868-0.839-7.885-0.854-8.399c-0.063-0.507,0.132-1.022,0.376-1.1c0.247-0.077,1.345,0.09,3.16-0.044
			c1.819-0.134,3.053-0.628,3.178,0.402c0.127,1.03,0.253,2.906,0.292,3.637c0.035,0.732,0.166,1.26-0.299,1.312
			C7.561,32.354,4.88,31.99,4.9,31.99c0.16,1.501,0.348,2.99,0.566,4.452c-0.002,0.001,0.876-0.087,1.244-0.075
			c0.365,0.011,0.827,0.08,1.003,1.01c0.178,0.926,0.305,1.563,0.418,2.176c0.115,0.616,0.515,1.549-0.183,1.577
			C7.249,41.157,6.279,41.209,6.281,41.209z"/>
		<path fill="#FFFFFF" d="M37.251,30.33c0.021,0.172,0.091,14.058-0.002,15.574c-0.064,1.882-0.109,2.701,1.529,2.802
			c1.642,0.09,1.597,0.064,2.018,0.037c0.419-0.032,0.691,0.018,0.789-1.011c0.111-0.933,0.052-6.621,0.099-8.778
			c0.084-2.005,0.085-9.384,0.07-9.405c0.001,0,1.334-0.357,1.931-0.452c0.598-0.095,1.593-0.199,1.402-1.901
			c-0.193-1.702-0.187-1.976-0.306-2.714s-0.155-1.065-0.903-0.947c-0.741,0.119-3.869,0.767-4.727,0.866
			c-0.847,0.096-4.441,0.623-4.983,0.717c-0.54,0.093-1.042-0.036-0.891,1.125c0.152,1.162,0.36,2.655,0.521,3.372
			c0.16,0.716,0.226,1.294,0.7,1.285C34.972,30.89,37.251,30.33,37.251,30.33z"/>
		<path fill="#FFFFFF" d="M49.57,40.69c0.324,0.17,0.625,0.404,0.363,1.152c-0.26,0.753-0.534,1.818,0.049,2.065
			c0.588,0.251,2.49,0.573,3.265,0.497c0.773-0.075,1.639-1.675,0.118-3.12c-1.526-1.447-3.911-2.621-5.525-5.219
			c-1.616-2.593-2.981-6.058-0.723-9.572c2.248-3.498,5.174-2.95,6.495-2.568c0.004,0.001,3.269,1.241,3.474,5.248
			c0.059,1.041,0.008,3.159-0.052,3.501c-0.058,0.347-0.057,0.596-0.416,0.546c-0.353-0.048-2.212-0.85-2.624-1.04
			c-0.404-0.186-0.4-0.415-0.335-0.872c0.066-0.459,0.521-1.572-0.342-1.995c-0.86-0.424-2.798,0.057-2.952,0.984
			c-0.149,0.928,0.913,3.205,2.904,4.572c2.011,1.368,5.151,3.162,4.93,7.066c-0.219,3.896-1.988,6.493-4.113,6.963
			c-2.126,0.468-5.123-0.118-6.607-1.012c-1.466-0.884-2.67-2.888-2.25-5.017c0.423-2.128,0.586-2.828,0.685-3.133
			c0.1-0.313,0.165-0.692,0.888-0.383C47.529,39.67,49.22,40.508,49.57,40.69z"/>
		<path fill="#FFFFFF" d="M57.33,24.107c-0.16-0.713-0.02-1.266,0.649-1.527c0.666-0.261,1.404-0.414,1.94-0.566
			c0.537-0.152,0.778-0.202,1.096,1.09c0.426,1.307,1.773,11.021,2.756,10.56c1.191-0.395,1.698-10.654,1.569-11.323
			c-0.003-0.703-0.011-1.001,0.688-0.914c0.7,0.089,1.669,0.257,1.96,0.386c0.3,0.13,0.563,0.451,0.545,1.68
			c0.129,1.222-0.49,12.88-3.233,15.782c-0.357,4.463-0.814,6.771-0.87,7.326c-0.061,0.552-0.081,0.898-0.739,0.947
			s-1.474,0.11-2.058,0.137c-0.584,0.023-0.835-0.09-0.649-1.351c0.224-1.186,1.046-6.952,1.01-7.006
			C61.882,39.288,60.065,37.225,57.33,24.107z"/>
		<path fill="#FFFFFF" d="M32.249,35.232c1.32-3.01,0.071-8.031-3.856-9.533c-3.924-1.497-6.823,0.789-7.481,1.525
			c-0.664,0.74-0.524,1.354-0.55,2.353c-0.191,1.308,1.619,16.91,1.967,17.235c0.222,1.01,0.573,2.004,1.559,1.997
			c0.99-0.007,1.435,0.021,1.947-0.061c0.512-0.09,0.871,0.02,0.6-1.548c-0.281-1.469-1.534-7.341-1.524-7.409
			c0,0.003,0.093-1.089,0.612-0.1c1.223,2.405,3.542,7.623,3.752,7.846c0.319,0.441,0.953,1.085,1.912,0.345
			c0.962-0.75,1.552-1.213,1.551-1.211c-0.002-0.001,0.68-0.662-0.124-1.846c-0.791-1.122-3.625-6.005-3.631-6.044
			C28.982,38.774,30.937,38.238,32.249,35.232z M24.334,34.942c-0.524-0.234-1.107-4.45-0.683-5.377
			c0.407-0.915,4.248-0.87,4.87,1.761C29.12,33.957,24.835,35.193,24.334,34.942z"/>
		<path fill="#FFFFFF" d="M21.425,47.567c-0.321-1.075-1.116-5.131-2.058-9.157c-1-3.924-2.274-12.698-5.166-13.215
			c-2.873-0.571-4.98,3.339-4.657,11.211c0.419,7.804,1.611,10.834,1.568,10.878c-0.006,0.015,0.196,1.645,1.282,1.705
			c1.084,0.075,1.457,0.072,1.747,0.092c0.29,0.017,1.011,0.032,0.831-0.646c-0.239-0.514-1.277-6.781-1.225-6.905
			c0.735-0.021,1.481-0.044,2.236-0.068c-0.041,0.121,1.431,6.417,1.642,6.804c0.168,0.545,0.462,0.858,1.29,0.797
			c0.829-0.062,1.645-0.078,2.04-0.1C21.348,48.936,21.74,48.688,21.425,47.567z M15.377,36.721
			c-0.825,0.057-1.64,0.111-2.439,0.164c-0.041,0.044-0.929-6.679,0.687-6.695C15.176,30.239,15.342,36.769,15.377,36.721z"/>
	</g>
</g>
<g id="Layer_1">
</g>
</svg>
